<?xml version="1.0"?>
<svg xmlns="http://www.w3.org/2000/svg" viewBox="0 0 32 32">
    <path style="text-indent:0;text-align:start;line-height:normal;text-transform:none;block-progression:tb;-inkscape-font-specification:Bitstream Vera Sans" d="M 16 4 C 9.3844277 4 4 9.3844277 4 16 C 4 22.615572 9.3844277 28 16 28 C 22.615572 28 28 22.615572 28 16 C 28 9.3844277 22.615572 4 16 4 z M 16 6 C 16.180732 6 16.451354 6.1111827 16.8125 6.53125 C 17.173646 6.9513173 17.540985 7.643959 17.875 8.5625 C 18.031705 8.9934377 18.182197 9.4854208 18.3125 10 L 13.6875 10 C 13.817803 9.4854208 13.968295 8.9934377 14.125 8.5625 C 14.459015 7.643959 14.826354 6.9513173 15.1875 6.53125 C 15.548646 6.1111827 15.819268 6 16 6 z M 12.8125 6.5 C 12.589744 6.9175347 12.399495 7.3779505 12.21875 7.875 C 11.983878 8.5208992 11.795362 9.2381043 11.625 10 L 8 10 C 9.2021096 8.3954599 10.870013 7.1506708 12.8125 6.5 z M 19.1875 6.5 C 21.129987 7.1506708 22.79789 8.3954599 24 10 L 20.375 10 C 20.204638 9.2381043 20.016122 8.5208992 19.78125 7.875 C 19.600505 7.3779505 19.410256 6.9175347 19.1875 6.5 z M 6.8125 12 L 11.28125 12 C 11.153871 12.948823 11.063543 13.95751 11.03125 15 L 6.0625 15 C 6.1659597 13.945012 6.4084156 12.931945 6.8125 12 z M 13.3125 12 L 18.6875 12 C 18.829334 12.936501 18.930946 13.943498 18.96875 15 L 13.03125 15 C 13.069054 13.943498 13.170666 12.936501 13.3125 12 z M 20.71875 12 L 25.1875 12 C 25.591584 12.931945 25.83404 13.945012 25.9375 15 L 20.96875 15 C 20.936457 13.95751 20.846129 12.948823 20.71875 12 z M 6.0625 17 L 11.03125 17 C 11.063543 18.04249 11.153871 19.051177 11.28125 20 L 6.8125 20 C 6.4084156 19.068055 6.1659597 18.054988 6.0625 17 z M 13.03125 17 L 18.96875 17 C 18.930946 18.056502 18.829334 19.063499 18.6875 20 L 13.3125 20 C 13.170666 19.063499 13.069054 18.056502 13.03125 17 z M 20.96875 17 L 25.9375 17 C 25.83404 18.054988 25.591584 19.068055 25.1875 20 L 20.71875 20 C 20.846129 19.051177 20.936457 18.04249 20.96875 17 z M 8 22 L 11.625 22 C 11.795362 22.761896 11.983878 23.479101 12.21875 24.125 C 12.399495 24.622049 12.589744 25.082465 12.8125 25.5 C 10.870013 24.849329 9.2021096 23.60454 8 22 z M 13.6875 22 L 18.3125 22 C 18.182197 22.514579 18.031705 23.006562 17.875 23.4375 C 17.540985 24.356041 17.173646 25.048683 16.8125 25.46875 C 16.451354 25.888817 16.180732 26 16 26 C 15.819268 26 15.548646 25.888817 15.1875 25.46875 C 14.826354 25.048683 14.459015 24.356041 14.125 23.4375 C 13.968295 23.006562 13.817803 22.514579 13.6875 22 z M 20.375 22 L 24 22 C 22.79789 23.60454 21.129987 24.849329 19.1875 25.5 C 19.410256 25.082465 19.600505 24.622049 19.78125 24.125 C 20.016122 23.479101 20.204638 22.761896 20.375 22 z" overflow="visible" font-family="Bitstream Vera Sans"/>
</svg>
